<?xml version="1.0" standalone="no"?>
<!DOCTYPE svg PUBLIC "-//W3C//DTD SVG 20010904//EN"
 "http://www.w3.org/TR/2001/REC-SVG-20010904/DTD/svg10.dtd">
<svg version="1.0" xmlns="http://www.w3.org/2000/svg"
 width="626.000000pt" height="626.000000pt" viewBox="0 0 626.000000 626.000000"
 preserveAspectRatio="xMidYMid meet">
<metadata>
Created by potrace 1.11, written by Peter Selinger 2001-2013
</metadata>
<g transform="translate(0.000000,626.000000) scale(0.100000,-0.100000)"
fill="#000000" stroke="none">
<path d="M3025 5326 c-110 -36 -278 -151 -520 -356 -297 -251 -558 -379 -955
-466 -164 -36 -195 -40 -493 -74 -318 -36 -355 -43 -421 -74 -121 -56 -166
-142 -226 -426 -78 -375 -121 -473 -321 -723 -109 -135 -112 -154 -30 -222 27
-22 111 -94 188 -160 77 -66 159 -136 183 -155 24 -19 88 -72 142 -117 54 -46
102 -83 106 -83 5 0 54 24 108 54 179 97 527 237 684 275 19 5 88 23 152 40
127 34 415 92 543 110 44 6 112 15 150 21 315 44 994 60 1320 32 450 -40 755
-94 1170 -207 191 -52 461 -160 656 -263 l126 -66 100 85 c55 46 113 94 129
106 108 83 434 372 440 390 10 35 -3 58 -93 171 -100 124 -136 179 -188 281
-50 100 -69 164 -116 386 -69 331 -110 413 -235 471 -65 31 -108 38 -387 69
-360 40 -533 71 -737 133 -299 91 -493 200 -770 433 -177 149 -328 257 -429
307 -65 32 -85 37 -155 39 -47 2 -98 -3 -121 -11z m165 -628 c29 -90 72 -221
95 -293 l43 -130 311 -3 c171 -1 311 -6 311 -10 -1 -4 -32 -29 -70 -56 -37
-26 -77 -54 -87 -62 -47 -37 -241 -181 -263 -196 -14 -9 -38 -27 -53 -40 l-28
-23 16 -45 c48 -136 175 -543 171 -548 -3 -3 -26 10 -50 29 -25 19 -70 52
-102 74 -31 22 -81 58 -110 80 -29 22 -96 71 -149 108 l-95 69 -100 -74 c-274
-203 -410 -301 -410 -294 0 6 132 424 166 525 28 84 30 81 -52 138 -22 15 -67
48 -100 73 -32 24 -120 89 -194 145 l-135 100 315 5 314 5 95 293 c52 160 98
292 102 292 3 0 30 -73 59 -162z"/>
<path d="M2835 2804 c-716 -30 -1467 -199 -1915 -431 l-75 -39 -3 -147 c-1
-81 0 -147 4 -147 3 0 41 16 83 36 455 214 1060 356 1726 406 226 16 760 16
965 -1 665 -54 1231 -185 1675 -388 55 -25 106 -48 113 -50 9 -4 12 29 12 144
l0 149 -98 47 c-445 213 -941 336 -1617 402 -142 14 -699 26 -870 19z"/>
<path d="M2870 2284 c-604 -23 -1236 -141 -1690 -317 -125 -48 -305 -131 -313
-144 -3 -5 11 -44 32 -88 139 -296 424 -511 876 -658 216 -71 553 -130 835
-147 206 -12 832 -12 1045 0 336 19 725 97 975 196 87 35 294 139 350 177 159
106 294 255 374 413 54 106 55 102 -54 156 -398 197 -991 341 -1610 392 -185
16 -641 26 -820 20z"/>
</g>
</svg>
