<?xml version="1.0" standalone="no"?>
<!DOCTYPE svg PUBLIC "-//W3C//DTD SVG 20010904//EN"
 "http://www.w3.org/TR/2001/REC-SVG-20010904/DTD/svg10.dtd">
<svg version="1.0" xmlns="http://www.w3.org/2000/svg"
 width="626.000000pt" height="626.000000pt" viewBox="0 0 626.000000 626.000000"
 preserveAspectRatio="xMidYMid meet">
<metadata>
Created by potrace 1.11, written by Peter Selinger 2001-2013
</metadata>
<g transform="translate(0.000000,626.000000) scale(0.100000,-0.100000)"
fill="#000000" stroke="none">
<path d="M3060 5334 c-74 -17 -233 -104 -325 -178 -11 -9 -49 -39 -85 -67 -36
-28 -67 -54 -70 -58 -3 -3 -21 -18 -40 -33 -19 -14 -51 -40 -70 -57 -52 -46
-52 -46 -111 -86 -30 -21 -58 -43 -64 -49 -5 -6 -27 -20 -47 -31 -21 -11 -38
-23 -38 -27 0 -5 -3 -7 -7 -6 -5 2 -38 -14 -75 -35 -36 -20 -69 -37 -73 -37
-3 0 -35 -13 -70 -30 -35 -16 -71 -30 -79 -30 -8 0 -22 -7 -30 -16 -9 -8 -16
-13 -16 -10 0 3 -11 1 -25 -4 -14 -5 -36 -12 -48 -14 -12 -2 -53 -14 -92 -26
-38 -12 -81 -24 -95 -27 -14 -2 -65 -13 -115 -23 -83 -17 -118 -23 -200 -34
-118 -16 -154 -20 -182 -19 -18 0 -33 -2 -33 -6 0 -3 -19 -7 -43 -8 -41 -2
-96 -7 -187 -17 -25 -3 -67 -10 -95 -16 -27 -6 -57 -12 -65 -13 -8 -1 -17 -4
-20 -7 -5 -6 -50 -26 -62 -29 -12 -3 -53 -44 -79 -81 -41 -58 -73 -151 -103
-300 -3 -14 -7 -34 -9 -45 -3 -11 -15 -67 -27 -124 -12 -57 -26 -115 -31 -129
-5 -13 -7 -28 -3 -33 3 -5 0 -9 -5 -9 -6 0 -11 -6 -11 -14 0 -18 -100 -220
-112 -224 -4 -2 -8 -8 -8 -14 0 -5 -6 -15 -13 -23 -6 -7 -21 -25 -32 -41 -23
-32 -62 -81 -88 -109 -10 -11 -26 -32 -35 -47 -9 -16 -19 -28 -23 -28 -4 0
-10 -14 -14 -30 -8 -35 12 -72 54 -105 14 -11 38 -32 53 -47 15 -16 30 -28 34
-28 4 0 14 -8 23 -18 9 -10 42 -39 74 -65 33 -26 55 -47 50 -47 -4 -1 4 -8 20
-16 15 -8 27 -19 27 -24 0 -6 5 -10 11 -10 6 0 16 -6 23 -12 7 -7 33 -29 56
-48 24 -19 56 -46 71 -60 16 -14 43 -36 61 -50 18 -14 49 -39 68 -57 39 -35
53 -36 93 -10 15 10 27 14 27 10 0 -5 4 -3 8 3 7 10 229 124 242 124 4 0 29
10 56 22 27 12 52 21 57 20 4 -1 7 2 7 7 0 5 17 12 37 16 21 4 43 10 48 15 9
7 228 82 240 81 2 0 19 5 37 10 43 13 110 31 158 43 8 2 41 11 72 19 31 8 59
12 62 9 3 -3 6 -1 6 4 0 5 10 10 23 11 36 3 81 10 102 16 11 3 36 8 55 11 19
3 58 11 86 19 28 7 60 10 70 7 10 -4 21 -4 24 1 3 5 33 11 65 14 33 4 71 9 85
11 14 3 44 6 67 7 24 1 43 4 43 7 0 3 17 6 38 6 44 2 177 12 177 14 0 7 243
14 510 14 300 0 424 -4 585 -19 30 -3 78 -7 105 -10 28 -2 59 -6 70 -8 11 -3
49 -8 85 -12 74 -7 103 -11 145 -18 17 -3 52 -8 79 -12 27 -3 53 -8 56 -10 4
-2 33 -9 66 -14 32 -6 70 -13 84 -16 14 -3 39 -8 55 -10 17 -2 42 -8 58 -14
15 -6 27 -9 27 -6 0 2 18 -2 40 -10 22 -8 40 -12 40 -10 0 2 18 -2 40 -10 22
-8 40 -12 40 -8 0 3 7 0 15 -7 8 -6 19 -9 24 -6 5 4 12 2 15 -3 3 -4 23 -11
43 -15 21 -3 108 -31 193 -62 85 -30 160 -56 165 -57 6 -2 17 -7 25 -12 8 -5
17 -10 20 -10 12 -2 204 -88 210 -95 3 -3 44 -25 91 -49 l86 -45 51 44 c29 24
52 48 52 53 0 6 3 8 6 4 7 -6 17 2 64 46 15 15 31 27 35 27 3 0 16 10 29 23
13 12 38 33 56 47 17 14 44 36 60 50 28 26 103 89 147 125 14 11 43 37 64 58
22 20 41 37 44 37 9 0 50 45 48 52 -2 5 2 8 7 8 21 0 8 58 -21 94 -5 6 -30 38
-56 71 -26 33 -50 62 -54 65 -35 26 -189 299 -189 334 0 7 -7 26 -14 42 -8 16
-17 43 -20 59 -3 17 -8 41 -11 55 -3 14 -8 36 -11 50 -2 14 -7 36 -10 50 -4
14 -8 38 -10 55 -2 16 -7 39 -11 50 -8 24 -7 19 -17 75 -19 103 -64 201 -122
266 -16 17 -97 62 -129 71 -24 7 -184 33 -225 37 -25 2 -45 5 -45 6 0 0 -22 3
-50 5 -94 8 -160 14 -199 21 -21 3 -50 7 -65 9 -54 5 -166 22 -166 25 0 1 -9
3 -20 4 -11 2 -33 6 -50 10 -16 3 -41 8 -55 11 -32 6 -111 25 -130 32 -8 4
-19 7 -25 8 -38 9 -162 48 -170 55 -5 4 -31 13 -57 21 -27 7 -48 17 -48 21 0
4 -6 8 -13 8 -43 0 -343 181 -419 253 -10 9 -18 15 -18 12 0 -2 -11 6 -23 18
-57 53 -130 112 -143 115 -8 2 -12 8 -9 13 4 5 1 9 -5 9 -6 0 -22 10 -35 23
-37 34 -55 48 -55 43 0 -3 -15 8 -32 25 -18 16 -38 29 -45 29 -7 0 -13 4 -13
10 0 5 -16 17 -35 26 -19 9 -35 21 -35 26 0 5 -4 6 -10 3 -5 -3 -10 -2 -10 2
0 5 -33 24 -72 43 -51 24 -88 34 -123 34 -27 1 -52 4 -55 7 -3 3 -30 0 -60 -7z
m78 -471 c-1 -5 4 -21 11 -38 7 -16 14 -37 16 -46 7 -33 29 -104 35 -114 4 -5
17 -47 30 -92 13 -46 27 -83 31 -83 4 0 6 -8 4 -17 -1 -10 0 -22 4 -28 3 -5
17 -46 31 -90 l26 -80 315 0 c299 0 315 -1 305 -17 -6 -10 -14 -18 -17 -18 -6
0 -53 -35 -101 -75 -10 -8 -18 -12 -18 -8 0 4 -9 -3 -20 -15 -12 -12 -24 -22
-28 -22 -4 0 -23 -14 -42 -30 -19 -16 -40 -34 -46 -39 -7 -6 -15 -7 -18 -4 -3
4 -6 2 -6 -4 0 -6 -33 -33 -72 -61 -129 -90 -131 -93 -117 -127 7 -17 13 -35
15 -42 3 -14 33 -111 41 -133 3 -8 7 -19 9 -25 46 -150 70 -221 77 -226 5 -3
8 -10 8 -15 -3 -21 24 -104 33 -104 6 0 5 -5 -2 -12 -9 -9 -21 -4 -51 20 -22
18 -45 32 -50 32 -6 0 -11 3 -11 8 0 4 -29 27 -65 51 -36 24 -65 48 -65 53 0
5 -4 6 -10 3 -5 -3 -10 -1 -10 4 0 6 -4 11 -10 11 -5 0 -18 7 -27 16 -10 8
-61 46 -113 84 -91 65 -96 67 -122 54 -14 -7 -28 -18 -30 -23 -1 -5 -9 -11
-17 -13 -8 -2 -22 -10 -31 -18 -31 -28 -58 -49 -87 -66 -15 -10 -36 -25 -45
-33 -35 -32 -47 -41 -58 -41 -5 0 -10 -4 -10 -10 0 -5 -5 -10 -11 -10 -6 0
-16 -6 -23 -12 -8 -7 -23 -20 -36 -28 -12 -8 -47 -34 -78 -57 -31 -23 -58 -41
-59 -39 -1 1 6 31 17 67 59 196 75 245 85 251 5 4 7 8 3 8 -4 0 0 19 8 43 9
23 18 52 20 64 2 12 9 35 15 50 6 16 10 29 10 30 0 2 6 21 14 44 18 49 14 55
-56 101 -27 17 -49 35 -49 40 0 4 -5 8 -11 8 -6 0 -16 6 -24 13 -25 23 -55 47
-61 47 -8 0 -128 93 -132 103 -2 4 -9 7 -16 7 -7 0 -21 9 -31 20 -10 11 -24
20 -32 20 -7 0 -13 6 -13 13 0 6 -13 18 -30 25 -33 15 -40 32 -12 32 9 1 149
2 311 3 l294 2 24 70 c13 39 27 81 29 94 3 14 8 29 12 35 4 6 7 14 8 19 1 4 2
8 4 10 1 1 3 9 5 17 4 19 93 290 102 310 6 14 8 21 12 35 2 8 11 6 9 -2z"/>
<path d="M2818 2805 c-3 -3 -209 -17 -270 -19 -21 0 -38 -5 -38 -10 0 -4 -7
-3 -15 4 -8 7 -15 9 -15 4 0 -5 -12 -9 -27 -10 -25 -1 -76 -7 -158 -18 -44 -6
-158 -19 -172 -19 -7 0 -13 -4 -13 -9 0 -5 -4 -7 -9 -3 -5 3 -29 1 -53 -4 -45
-10 -77 -16 -142 -26 -39 -7 -57 -10 -98 -21 -13 -3 -33 -7 -45 -10 -12 -2
-33 -8 -45 -13 -13 -5 -26 -9 -31 -9 -25 -3 -84 -14 -97 -19 -19 -8 -30 -11
-58 -17 -12 -3 -26 -7 -30 -10 -5 -3 -24 -8 -42 -11 -18 -3 -42 -11 -54 -17
-11 -7 -25 -12 -31 -13 -9 0 -73 -20 -105 -32 -8 -3 -20 -7 -26 -8 -5 -2 -30
-12 -54 -24 -24 -11 -50 -21 -57 -21 -7 0 -21 -4 -31 -9 -29 -16 -197 -96
-202 -96 -3 -1 -18 -10 -35 -20 -28 -18 -30 -25 -30 -77 0 -32 3 -58 7 -58 4
0 4 -10 0 -22 -10 -27 -8 -60 3 -78 5 -8 4 -11 -2 -7 -5 3 -9 -8 -9 -28 1 -19
4 -35 8 -35 4 0 38 14 75 31 95 44 117 52 126 51 4 -1 7 2 7 8 0 5 7 10 16 10
8 0 25 5 37 12 12 7 31 13 41 15 11 2 25 8 33 14 7 6 13 8 13 4 0 -4 7 -2 15
5 8 7 15 9 15 5 0 -4 6 -3 13 2 9 8 72 33 97 38 33 8 100 28 120 36 21 9 204
58 275 74 11 3 45 10 75 17 30 7 60 13 65 14 6 1 12 3 15 4 3 1 16 3 30 5 14
2 77 13 140 24 63 11 133 23 155 25 22 3 56 7 75 10 19 3 58 8 85 11 28 3 61
7 75 10 27 5 196 16 268 18 23 1 42 4 42 7 0 3 88 5 195 5 107 0 195 4 195 8
0 5 5 5 11 2 6 -4 83 -9 172 -10 89 -2 162 -4 162 -5 0 -1 25 -3 55 -5 172 -9
301 -21 435 -39 6 -1 16 -5 23 -9 6 -5 12 -4 12 2 0 7 8 7 27 0 14 -5 32 -8
39 -5 7 2 15 2 18 -2 4 -3 14 -7 24 -7 9 -1 35 -5 57 -9 22 -4 49 -9 60 -10
11 -2 38 -7 59 -11 22 -4 49 -9 60 -10 12 -1 21 -3 21 -4 0 -2 9 -4 20 -6 86
-15 135 -29 135 -39 0 -7 3 -7 8 1 6 10 14 9 35 -2 20 -10 27 -11 27 -2 0 8 3
8 8 2 4 -5 14 -12 22 -14 35 -9 96 -23 112 -26 9 -2 25 -8 35 -13 10 -5 56
-19 103 -32 47 -13 91 -28 97 -33 7 -5 20 -7 28 -3 9 3 14 2 10 -3 -3 -5 9
-13 27 -16 18 -4 39 -12 46 -17 6 -6 12 -8 12 -4 0 3 17 -3 37 -14 21 -11 44
-20 51 -20 7 0 32 -10 55 -22 23 -12 44 -23 47 -23 3 -1 25 -11 50 -22 25 -11
53 -23 62 -26 21 -7 36 12 18 23 -7 4 -8 10 -2 13 11 7 10 56 -1 75 -5 6 -4
12 0 12 10 0 9 126 0 156 -5 13 -23 26 -47 34 -22 7 -40 17 -40 22 0 4 -3 7
-7 6 -5 -1 -38 12 -74 30 -36 17 -72 32 -80 34 -8 2 -16 5 -19 8 -5 5 -36 17
-160 62 -89 33 -330 105 -395 118 -79 16 -78 16 -95 23 -22 8 -119 29 -149 32
-24 3 -51 8 -111 20 -56 12 -86 17 -110 20 -14 2 -41 6 -60 9 -19 3 -57 8 -85
11 -27 3 -72 9 -100 12 -27 3 -69 7 -92 7 -24 1 -43 3 -43 6 0 3 -15 6 -32 6
-18 0 -69 4 -113 9 -74 7 -780 16 -787 10z"/>
<path d="M2774 2281 c-2 -3 -28 -6 -57 -7 -79 -4 -206 -13 -257 -19 -25 -2
-66 -7 -92 -10 -26 -3 -62 -7 -80 -10 -45 -7 -109 -16 -133 -19 -48 -6 -108
-17 -285 -50 -38 -8 -70 -15 -88 -20 -9 -3 -32 -8 -51 -11 -19 -3 -38 -8 -43
-11 -5 -3 -19 -7 -31 -9 -12 -2 -33 -6 -47 -10 -14 -3 -34 -8 -46 -10 -12 -3
-40 -11 -63 -19 -22 -9 -41 -13 -41 -9 0 3 -6 1 -12 -5 -7 -5 -33 -15 -58 -22
-25 -6 -52 -14 -60 -17 -8 -3 -22 -7 -30 -9 -8 -2 -23 -7 -35 -12 -11 -5 -40
-18 -65 -27 -25 -10 -58 -24 -75 -31 -16 -7 -42 -16 -57 -19 -16 -4 -28 -11
-28 -16 0 -5 -3 -8 -7 -7 -5 1 -45 -15 -90 -37 l-81 -38 20 -56 c11 -31 27
-63 34 -72 8 -8 14 -20 14 -25 0 -10 55 -92 92 -137 59 -70 143 -151 202 -192
16 -11 37 -28 48 -37 10 -10 18 -16 18 -13 0 3 17 -6 37 -20 21 -14 43 -25 49
-25 7 0 14 -3 16 -7 9 -21 254 -128 363 -160 28 -8 57 -17 65 -20 8 -4 17 -7
20 -7 3 -1 28 -7 55 -14 105 -28 121 -31 170 -41 65 -14 101 -20 150 -27 22
-3 51 -7 64 -9 13 -3 45 -7 70 -11 25 -3 57 -8 71 -10 76 -13 295 -19 705 -19
477 0 651 7 794 30 34 6 47 8 131 19 32 4 99 15 125 20 6 1 19 5 30 9 11 3 31
8 45 11 14 2 45 9 70 16 25 7 54 14 64 16 11 2 23 9 27 15 5 8 8 8 10 0 3 -7
13 -6 32 4 15 7 27 12 27 10 0 -2 30 8 68 22 37 14 73 25 80 26 6 0 12 4 12 8
0 4 12 10 28 13 34 9 175 76 183 89 3 5 8 8 10 7 5 -3 63 23 69 31 3 3 24 18
46 32 154 96 291 244 372 402 53 103 55 113 27 131 -13 9 -30 12 -36 8 -7 -4
-9 -3 -6 3 3 5 -22 22 -56 38 -34 15 -80 36 -102 46 -75 34 -305 114 -317 111
-5 -1 -8 3 -8 9 0 5 -4 8 -10 4 -5 -3 -25 1 -45 9 -19 8 -39 16 -43 17 -4 1
-11 3 -17 4 -10 3 -155 38 -165 40 -6 1 -193 44 -230 52 -33 8 -45 10 -110 18
-30 4 -58 9 -61 11 -8 5 -94 16 -131 18 -16 0 -28 3 -28 6 0 3 -10 5 -22 6
-21 0 -51 4 -193 20 -22 2 -76 7 -120 10 -127 9 -170 13 -175 14 -15 6 -37 4
-47 -4 -8 -5 -13 -5 -13 1 0 9 -657 13 -666 4z"/>
</g>
</svg>
